<svg width="229" height="46" viewBox="0 0 229 46" fill="none" xmlns="http://www.w3.org/2000/svg">
<path d="M17.776 45.704C14.3627 45.704 11.5467 45.2773 9.328 44.424C7.152 43.528 5.424 42.1627 4.144 40.328C2.864 38.4933 1.968 36.168 1.456 33.352C0.986667 30.4933 0.752 27.1013 0.752 23.176C0.752 19.208 0.986667 15.816 1.456 13C1.968 10.1413 2.864 7.79467 4.144 5.96C5.424 4.12533 7.17333 2.76 9.392 1.864C11.6533 0.967997 14.5333 0.519997 18.032 0.519997C19.44 0.519997 20.912 0.60533 22.448 0.775997C23.984 0.946664 25.456 1.16 26.864 1.416C28.3147 1.62933 29.552 1.864 30.576 2.12L30.32 9.16C29.4667 8.98933 28.4 8.84 27.12 8.712C25.84 8.54133 24.5387 8.41333 23.216 8.328C21.8933 8.24266 20.656 8.2 19.504 8.2C17.456 8.2 15.792 8.456 14.512 8.968C13.232 9.48 12.2293 10.3333 11.504 11.528C10.8213 12.7227 10.352 14.28 10.096 16.2C9.84 18.0773 9.712 20.4027 9.712 23.176C9.712 25.9067 9.84 28.232 10.096 30.152C10.352 32.0293 10.8213 33.5653 11.504 34.76C12.1867 35.912 13.168 36.7653 14.448 37.32C15.7707 37.832 17.4773 38.088 19.568 38.088C21.2747 38.088 23.152 38.0027 25.2 37.832C27.2907 37.6187 29.0187 37.4267 30.384 37.256L30.576 44.232C29.552 44.4453 28.336 44.68 26.928 44.936C25.52 45.1493 24.0267 45.32 22.448 45.448C20.8693 45.6187 19.312 45.704 17.776 45.704ZM46.3225 45.704C43.5492 45.704 41.3945 45.128 39.8585 43.976C38.3652 42.7813 37.2985 40.9893 36.6585 38.6C36.0612 36.2107 35.7625 33.2027 35.7625 29.576V12.872H44.2745V29.192C44.2745 31.4533 44.3812 33.2453 44.5945 34.568C44.8505 35.8907 45.3412 36.8293 46.0665 37.384C46.7918 37.9387 47.8372 38.216 49.2025 38.216C50.5252 38.216 51.7625 38.0453 52.9145 37.704C54.0665 37.3627 54.9838 37.0213 55.6665 36.68V12.872H64.1785V45H55.7305V43.016C54.2798 43.8267 52.8292 44.488 51.3785 45C49.9705 45.4693 48.2852 45.704 46.3225 45.704ZM82.4715 45.768C80.1248 45.768 78.2262 45.4267 76.7755 44.744C75.3248 44.0613 74.2795 42.888 73.6395 41.224C73.0422 39.5173 72.7435 37.1493 72.7435 34.12V19.976H68.9675V12.872H72.7435V4.36H81.2555V12.872H89.4475V19.976H81.2555V31.88C81.2555 33.544 81.3195 34.8453 81.4475 35.784C81.6182 36.7227 81.9595 37.384 82.4715 37.768C82.9835 38.152 83.7728 38.344 84.8395 38.344C85.1382 38.344 85.5862 38.3227 86.1835 38.28C86.7808 38.2373 87.3782 38.1947 87.9755 38.152C88.5728 38.1093 89.0635 38.0667 89.4475 38.024L89.7035 44.872C88.6795 45.0427 87.4422 45.2347 85.9915 45.448C84.5835 45.6613 83.4102 45.768 82.4715 45.768ZM107.2 45.704C103.658 45.704 100.842 45.1067 98.7515 43.912C96.7035 42.7173 95.2315 40.904 94.3355 38.472C93.4395 36.04 92.9915 32.9893 92.9915 29.32C92.9915 25.352 93.5462 22.1093 94.6555 19.592C95.8075 17.0747 97.4715 15.2187 99.6475 14.024C101.824 12.7867 104.512 12.168 107.712 12.168C112.448 12.168 116.01 13.3627 118.4 15.752C120.832 18.1413 122.048 21.9173 122.048 27.08L121.664 31.816H101.568C101.61 34.2053 102.101 35.9973 103.04 37.192C103.978 38.3867 105.6 38.984 107.904 38.984C109.226 38.984 110.677 38.9627 112.256 38.92C113.834 38.8347 115.392 38.7493 116.928 38.664C118.506 38.5787 119.85 38.4933 120.96 38.408L121.152 44.36C120.085 44.5307 118.741 44.7227 117.12 44.936C115.498 45.1493 113.813 45.32 112.064 45.448C110.357 45.6187 108.736 45.704 107.2 45.704ZM101.568 26.376H113.536C113.536 23.4747 113.066 21.448 112.128 20.296C111.232 19.144 109.76 18.568 107.712 18.568C105.706 18.568 104.17 19.1653 103.104 20.36C102.08 21.5547 101.568 23.56 101.568 26.376ZM157.901 45.704C154.488 45.704 151.672 45.2773 149.453 44.424C147.277 43.528 145.549 42.1627 144.269 40.328C142.989 38.4933 142.093 36.168 141.581 33.352C141.112 30.4933 140.877 27.1013 140.877 23.176C140.877 19.208 141.112 15.816 141.581 13C142.093 10.1413 142.989 7.79467 144.269 5.96C145.549 4.12533 147.298 2.76 149.517 1.864C151.778 0.967997 154.658 0.519997 158.157 0.519997C159.565 0.519997 161.037 0.60533 162.573 0.775997C164.109 0.946664 165.581 1.16 166.989 1.416C168.44 1.62933 169.677 1.864 170.701 2.12L170.445 9.16C169.592 8.98933 168.525 8.84 167.245 8.712C165.965 8.54133 164.664 8.41333 163.341 8.328C162.018 8.24266 160.781 8.2 159.629 8.2C157.581 8.2 155.917 8.456 154.637 8.968C153.357 9.48 152.354 10.3333 151.629 11.528C150.946 12.7227 150.477 14.28 150.221 16.2C149.965 18.0773 149.837 20.4027 149.837 23.176C149.837 25.9067 149.965 28.232 150.221 30.152C150.477 32.0293 150.946 33.5653 151.629 34.76C152.312 35.912 153.293 36.7653 154.573 37.32C155.896 37.832 157.602 38.088 159.693 38.088C161.4 38.088 163.277 38.0027 165.325 37.832C167.416 37.6187 169.144 37.4267 170.509 37.256L170.701 44.232C169.677 44.4453 168.461 44.68 167.053 44.936C165.645 45.1493 164.152 45.32 162.573 45.448C160.994 45.6187 159.437 45.704 157.901 45.704ZM184.592 45.704C181.264 45.704 178.746 44.872 177.04 43.208C175.376 41.5013 174.544 38.9413 174.544 35.528C174.544 33.1387 174.97 31.2827 175.824 29.96C176.677 28.5947 177.936 27.6133 179.6 27.016C181.306 26.376 183.376 25.992 185.808 25.864L193.616 25.16V23.24C193.616 21.704 193.232 20.6373 192.464 20.04C191.696 19.4 190.565 19.08 189.072 19.08C187.877 19.08 186.49 19.1227 184.912 19.208C183.376 19.2933 181.84 19.4 180.304 19.528C178.81 19.656 177.509 19.784 176.4 19.912L176.144 13.896C177.253 13.64 178.576 13.384 180.112 13.128C181.69 12.8293 183.333 12.5947 185.04 12.424C186.746 12.2533 188.325 12.168 189.776 12.168C192.506 12.168 194.789 12.5093 196.624 13.192C198.458 13.8747 199.845 15.0053 200.784 16.584C201.722 18.12 202.192 20.2107 202.192 22.856V37.512C202.277 38.1093 202.597 38.5787 203.152 38.92C203.706 39.2187 204.346 39.432 205.072 39.56L204.88 45.448C203.856 45.4907 202.853 45.512 201.872 45.512C200.89 45.512 200.058 45.448 199.376 45.32C198.394 45.192 197.541 44.936 196.816 44.552C196.133 44.168 195.578 43.7627 195.152 43.336C194.469 43.6347 193.552 43.976 192.4 44.36C191.248 44.744 189.989 45.064 188.624 45.32C187.301 45.576 185.957 45.704 184.592 45.704ZM186.64 39.368C187.45 39.368 188.304 39.2827 189.2 39.112C190.096 38.9413 190.928 38.7493 191.696 38.536C192.506 38.28 193.146 38.0453 193.616 37.832V30.472L187.088 31.048C185.68 31.176 184.656 31.6027 184.016 32.328C183.418 33.0107 183.12 33.992 183.12 35.272C183.12 36.552 183.397 37.5547 183.952 38.28C184.549 39.0053 185.445 39.368 186.64 39.368ZM220.972 45.768C218.625 45.768 216.726 45.4267 215.276 44.744C213.825 44.0613 212.78 42.888 212.14 41.224C211.542 39.5173 211.244 37.1493 211.244 34.12V19.976H207.468V12.872H211.244V4.36H219.756V12.872H227.948V19.976H219.756V31.88C219.756 33.544 219.82 34.8453 219.948 35.784C220.118 36.7227 220.46 37.384 220.972 37.768C221.484 38.152 222.273 38.344 223.34 38.344C223.638 38.344 224.086 38.3227 224.684 38.28C225.281 38.2373 225.878 38.1947 226.476 38.152C227.073 38.1093 227.564 38.0667 227.948 38.024L228.204 44.872C227.18 45.0427 225.942 45.2347 224.492 45.448C223.084 45.6613 221.91 45.768 220.972 45.768Z" fill="#6F4F44"/>
</svg>
